<?xml version="1.0" standalone="no"?>
<!DOCTYPE svg PUBLIC "-//W3C//DTD SVG 20010904//EN"
 "http://www.w3.org/TR/2001/REC-SVG-20010904/DTD/svg10.dtd">
<svg version="1.0" xmlns="http://www.w3.org/2000/svg"
 width="616.000000pt" height="615.000000pt" viewBox="0 0 616.000000 615.000000"
 preserveAspectRatio="xMidYMid meet">

<g transform="translate(0.000000,615.000000) scale(0.100000,-0.100000)"
fill="#000000" stroke="none">
<path d="M2830 5952 c0 -12 19 -26 26 -19 2 2 -2 10 -11 17 -9 8 -15 8 -15 2z"/>
<path d="M2672 5760 c0 -14 2 -19 5 -12 2 6 2 18 0 25 -3 6 -5 1 -5 -13z"/>
<path d="M3046 5294 c-19 -18 -21 -55 -5 -71 9 -9 1 -14 -30 -23 -23 -6 -56
-24 -75 -40 l-34 -30 -51 35 c-135 90 -303 43 -370 -105 -20 -43 -21 -64 -21
-477 0 -282 3 -433 10 -433 7 0 10 143 10 408 0 443 4 479 54 545 74 96 231
109 323 25 21 -20 21 -20 2 -63 -17 -39 -19 -72 -19 -421 0 -209 0 -405 0
-436 0 -32 5 -58 10 -58 7 0 10 149 10 428 1 395 2 430 19 467 l19 40 16 -37
c14 -33 16 -94 16 -469 0 -340 3 -430 13 -426 9 3 12 99 12 438 0 428 0 435
-22 475 l-22 41 22 21 c70 63 180 76 259 29 26 -15 49 -31 52 -35 3 -5 -5 -29
-17 -53 -22 -43 -22 -53 -25 -482 -2 -353 0 -438 10 -435 10 4 13 95 14 435 2
407 3 432 22 468 l19 39 19 -35 c18 -32 19 -66 22 -471 2 -283 6 -438 13 -438
6 0 9 154 7 448 -3 423 -4 449 -22 479 l-20 32 24 26 c13 14 49 33 79 42 74
21 142 6 201 -44 81 -69 80 -61 80 -550 0 -378 2 -433 15 -433 22 0 22 811 0
886 -43 144 -208 216 -342 149 -28 -15 -57 -32 -63 -40 -10 -12 -18 -10 -48
14 -21 16 -54 34 -75 41 -28 9 -36 15 -28 23 17 17 13 52 -7 70 -23 21 -56 22
-76 1z"/>
<path d="M4046 4527 c3 -10 9 -15 12 -12 3 3 0 11 -7 18 -10 9 -11 8 -5 -6z"/>
<path d="M941 3390 c-51 -12 -112 -60 -138 -109 -22 -43 -23 -51 -23 -303 l0
-258 30 0 30 0 0 261 0 262 43 42 c57 57 109 67 175 33 35 -17 53 -35 70 -68
21 -42 22 -55 22 -287 l0 -243 30 0 30 0 0 250 c0 274 2 285 59 333 72 61 184
35 229 -53 21 -42 22 -55 22 -287 l0 -243 30 0 30 0 0 236 c0 259 -6 303 -52
358 -81 99 -229 107 -315 18 l-35 -37 -43 41 c-27 27 -58 45 -88 52 -51 13
-57 13 -106 2z"/>
<path d="M2129 3390 c-103 -18 -207 -100 -251 -198 -33 -73 -31 -199 3 -272
56 -118 162 -189 293 -198 160 -10 301 97 342 257 59 233 -146 452 -387 411z
m186 -90 c135 -66 188 -216 125 -358 -27 -60 -63 -97 -125 -130 -41 -22 -64
-27 -125 -27 -96 0 -156 29 -216 102 -125 153 -48 388 143 439 65 17 126 9
198 -26z"/>
<path d="M3081 3388 c-108 -17 -199 -89 -250 -197 -38 -81 -37 -193 2 -273 35
-72 93 -130 165 -165 78 -38 200 -40 280 -4 49 22 162 128 162 152 0 5 -13 9
-30 9 -22 0 -42 -12 -78 -49 -132 -132 -353 -96 -438 71 -70 138 -17 302 120
372 111 57 240 34 327 -58 31 -33 51 -46 71 -46 35 0 35 7 -1 57 -75 104 -198
153 -330 131z"/>
<path d="M4028 3390 c-104 -18 -198 -94 -246 -199 -38 -82 -37 -193 2 -274 34
-71 93 -129 166 -165 48 -23 67 -27 145 -27 80 0 96 4 140 28 59 33 79 49 123
100 39 46 40 57 4 57 -20 0 -43 -14 -79 -49 -180 -173 -465 -51 -467 199 -1
154 118 273 274 273 83 0 144 -26 203 -87 30 -32 52 -46 70 -46 39 0 34 20
-19 79 -80 89 -202 132 -316 111z"/>
<path d="M4964 3386 c-263 -64 -348 -391 -149 -575 71 -66 124 -86 225 -86 77
0 92 3 152 33 75 37 123 88 160 168 32 68 32 198 2 265 -44 95 -131 168 -231
194 -67 18 -90 18 -159 1z m203 -82 c162 -77 203 -298 80 -432 -63 -68 -107
-87 -202 -87 -63 0 -89 5 -121 22 -66 35 -101 70 -131 130 -54 112 -30 237 63
323 88 81 198 97 311 44z"/>
<path d="M1110 1960 l0 -93 36 6 c20 3 42 11 50 18 16 13 19 55 4 64 -5 3 -7
18 -4 33 6 36 -4 49 -49 57 l-37 7 0 -92z m67 44 c6 -16 -12 -34 -34 -34 -7 0
-13 11 -13 25 0 18 5 25 20 25 11 0 23 -7 27 -16z m8 -79 c0 -14 -8 -21 -27
-23 -24 -3 -28 0 -28 23 0 23 4 26 28 23 19 -2 27 -9 27 -23z"/>
<path d="M1351 2024 c-31 -26 -41 -68 -25 -109 8 -19 55 -45 84 -45 33 0 80
53 80 90 0 39 -47 90 -83 90 -14 0 -39 -12 -56 -26z m95 -20 c20 -19 24 -31
20 -52 -7 -29 -40 -62 -61 -62 -27 0 -65 41 -65 70 0 19 9 36 26 49 35 27 49
26 80 -5z"/>
<path d="M1599 2043 c-1 -4 0 -39 0 -78 1 -53 6 -73 18 -82 24 -19 50 -16 73
7 18 18 20 31 18 88 -4 89 -22 86 -26 -5 -3 -73 -13 -90 -47 -77 -11 5 -15 23
-15 74 0 38 -4 72 -10 75 -5 3 -10 3 -11 -2z"/>
<path d="M1817 2044 c-12 -12 -8 -24 8 -24 11 0 15 -17 17 -72 2 -46 7 -73 16
-76 9 -3 12 16 12 72 0 63 3 76 16 76 9 0 14 6 12 13 -5 13 -69 22 -81 11z"/>
<path d="M2009 2028 c0 -13 -2 -41 -4 -63 -4 -50 5 -96 16 -89 12 7 11 161 -1
169 -5 3 -10 -4 -11 -17z"/>
<path d="M2164 2027 c-23 -20 -29 -33 -29 -67 0 -62 36 -90 116 -90 33 0 59 4
59 10 0 6 -6 10 -14 10 -12 0 -12 4 1 30 28 58 -3 116 -69 126 -27 5 -40 1
-64 -19z m104 -19 c13 -11 16 -56 6 -83 -17 -44 -98 -37 -110 10 -18 72 47
118 104 73z"/>
<path d="M2416 2043 c-3 -3 -6 -34 -6 -67 0 -91 33 -126 91 -96 16 9 19 22 19
91 0 51 -4 78 -10 74 -5 -3 -10 -37 -10 -75 0 -70 -10 -87 -45 -74 -11 5 -15
23 -15 74 0 64 -8 89 -24 73z"/>
<path d="M2630 1958 l0 -88 45 0 c33 0 45 4 45 15 0 10 -11 15 -35 15 -31 0
-35 3 -35 25 0 21 5 25 30 25 17 0 30 5 30 10 0 6 -13 10 -30 10 -25 0 -30 4
-30 24 0 20 6 25 32 28 51 5 46 26 -7 25 l-45 -1 0 -88z"/>
<path d="M2997 2043 c-4 -3 -7 -44 -7 -90 0 -63 3 -84 13 -80 6 2 12 18 12 35
0 18 2 32 5 32 3 0 16 -16 29 -35 22 -33 41 -45 41 -26 0 4 -10 20 -21 35
l-22 27 22 15 c27 20 27 59 -1 78 -23 16 -60 21 -71 9z m68 -48 c0 -13 -8 -21
-22 -23 -19 -3 -23 1 -23 23 0 22 4 26 23 23 14 -2 22 -10 22 -23z"/>
<path d="M3204 2035 c-3 -7 -4 -45 -2 -86 l3 -74 43 -1 c29 -1 42 3 42 12 0 9
-12 14 -35 14 -31 0 -35 3 -35 25 0 21 5 25 30 25 17 0 30 5 30 10 0 6 -13 10
-30 10 -25 0 -30 4 -30 25 0 22 4 25 35 25 19 0 35 5 35 10 0 6 -3 10 -7 11
-50 6 -76 4 -79 -6z"/>
<path d="M3416 2035 c-27 -27 -17 -58 25 -79 26 -12 37 -42 22 -57 -13 -13
-43 0 -43 17 0 8 -5 14 -11 14 -23 0 -3 -45 25 -55 24 -8 31 -6 47 14 26 32
21 51 -18 76 -33 20 -42 48 -21 61 6 4 17 -1 24 -11 17 -23 32 -11 18 13 -15
23 -48 27 -68 7z"/>
<path d="M3630 2040 c-32 -5 -33 -6 -15 -17 17 -10 20 -22 20 -75 0 -90 19
-90 23 0 2 55 6 72 17 72 18 0 20 16 3 22 -7 2 -29 1 -48 -2z"/>
<path d="M3832 1970 c-18 -45 -32 -86 -32 -91 0 -17 21 2 30 27 14 35 67 34
80 -1 5 -14 14 -25 20 -25 14 0 14 1 -16 77 -42 106 -46 106 -82 13z m58 -12
c0 -4 -9 -8 -21 -8 -15 0 -19 4 -15 16 3 9 6 21 6 27 1 13 30 -22 30 -35z"/>
<path d="M4140 1981 c0 -75 -13 -98 -50 -86 -18 6 -20 15 -20 76 0 39 -4 69
-10 69 -6 0 -10 -32 -10 -75 0 -63 3 -76 19 -85 60 -32 91 2 91 98 0 41 -4 72
-10 72 -6 0 -10 -30 -10 -69z"/>
<path d="M4264 2037 c-9 -24 1 -162 11 -162 6 0 11 14 13 32 l3 32 29 -32 c33
-37 50 -32 20 6 l-20 26 24 24 c16 16 23 32 20 45 -10 34 -89 57 -100 29z m76
-42 c0 -20 -5 -25 -25 -25 -20 0 -25 5 -25 25 0 20 5 25 25 25 20 0 25 -5 25
-25z"/>
<path d="M4524 2015 c-44 -106 -53 -135 -43 -140 5 -4 14 7 20 24 9 26 16 31
43 31 26 0 34 -5 43 -31 7 -17 16 -28 22 -25 6 4 -1 31 -16 69 -13 34 -29 72
-33 85 -13 30 -19 28 -36 -13z m38 -47 c7 -15 4 -18 -16 -18 -23 0 -24 2 -13
30 7 17 14 25 16 18 2 -7 8 -21 13 -30z"/>
<path d="M4837 2043 c-4 -3 -7 -34 -7 -67 l0 -61 -40 63 c-57 88 -72 84 -68
-20 3 -91 22 -111 24 -27 1 27 4 52 7 55 3 3 21 -22 42 -55 20 -34 41 -61 46
-61 5 0 9 41 9 90 0 90 -1 96 -13 83z"/>
<path d="M4964 2041 c-9 -9 -3 -21 11 -21 12 0 15 -14 15 -69 0 -39 5 -73 10
-76 11 -7 12 3 11 88 -1 51 1 57 20 57 12 0 19 5 16 13 -3 11 -72 18 -83 8z"/>
</g>
</svg>
