<svg width="84" height="84" viewBox="0 0 84 84" fill="none" xmlns="http://www.w3.org/2000/svg">
<path d="M42 55.125C49.2487 55.125 55.125 49.2487 55.125 42C55.125 34.7513 49.2487 28.875 42 28.875C34.7513 28.875 28.875 34.7513 28.875 42C28.875 49.2487 34.7513 55.125 42 55.125Z" stroke="#F4F4F4" stroke-width="4" stroke-miterlimit="10"/>
<path d="M56.4375 11.8125H27.5625C18.864 11.8125 11.8125 18.864 11.8125 27.5625V56.4375C11.8125 65.136 18.864 72.1875 27.5625 72.1875H56.4375C65.136 72.1875 72.1875 65.136 72.1875 56.4375V27.5625C72.1875 18.864 65.136 11.8125 56.4375 11.8125Z" stroke="#F4F4F4" stroke-width="4" stroke-linecap="round" stroke-linejoin="round"/>
<path d="M59.0625 28.875C61.2371 28.875 63 27.1121 63 24.9375C63 22.7629 61.2371 21 59.0625 21C56.8879 21 55.125 22.7629 55.125 24.9375C55.125 27.1121 56.8879 28.875 59.0625 28.875Z" fill="#F4F4F4"/>
</svg>
